ground reactions
version=1
nRows=38
nColumns=19
inDegrees=no
endheader
time	ground_force_l_vx	ground_force_l_vy	ground_force_l_vz	ground_force_l_px	ground_force_l_py	ground_force_l_pz	ground_torque_l_x	ground_torque_l_y	ground_torque_l_z	ground_force_r_vx	ground_force_r_vy	ground_force_r_vz	ground_force_r_px	ground_force_r_py	ground_force_r_pz	ground_torque_r_x	ground_torque_r_y	ground_torque_r_z
3.220000	-130.748662	844.177677	69.612887	1.380828	0.000000	-0.527650	0.000000	1.622221	0.000000	-6.577487	64.845596	-0.407464	1.318614	0.000000	-0.457144	0.000000	1.847842	0.000000
3.220500	-130.263845	844.304885	69.373958	1.380337	0.000000	-0.527671	0.000000	1.612443	0.000000	-6.453011	64.498557	-0.385584	1.320148	0.000000	-0.457469	0.000000	1.850703	0.000000
3.221000	-129.776064	844.409365	69.131871	1.379847	0.000000	-0.527692	0.000000	1.602771	0.000000	-6.324239	64.163440	-0.367218	1.321607	0.000000	-0.457789	0.000000	1.853997	0.000000
3.221500	-129.285430	844.491034	68.887024	1.379357	0.000000	-0.527713	0.000000	1.593225	0.000000	-6.191576	63.839800	-0.352201	1.322990	0.000000	-0.458103	0.000000	1.857662	0.000000
3.222000	-128.792064	844.549843	68.639811	1.378868	0.000000	-0.527733	0.000000	1.583825	0.000000	-6.055424	63.527198	-0.340359	1.324294	0.000000	-0.458410	0.000000	1.861641	0.000000
3.222500	-128.296099	844.585773	68.390625	1.378379	0.000000	-0.527754	0.000000	1.574593	0.000000	-5.916177	63.225201	-0.331508	1.325519	0.000000	-0.458710	0.000000	1.865875	0.000000
3.223000	-127.797679	844.598831	68.139857	1.377892	0.000000	-0.527775	0.000000	1.565548	0.000000	-5.774225	62.933382	-0.325460	1.326665	0.000000	-0.459003	0.000000	1.870312	0.000000
3.223500	-127.296955	844.589056	67.887891	1.377405	0.000000	-0.527795	0.000000	1.556709	0.000000	-5.629950	62.651321	-0.322018	1.327730	0.000000	-0.459287	0.000000	1.874897	0.000000
3.224000	-126.794088	844.556510	67.635107	1.376919	0.000000	-0.527816	0.000000	1.548095	0.000000	-5.483725	62.378601	-0.320979	1.328713	0.000000	-0.459564	0.000000	1.879581	0.000000
3.224500	-126.289247	844.501282	67.381879	1.376433	0.000000	-0.527836	0.000000	1.539722	0.000000	-5.335915	62.114813	-0.322138	1.329616	0.000000	-0.459831	0.000000	1.884314	0.000000
3.225000	-125.782608	844.423485	67.128571	1.375949	0.000000	-0.527857	0.000000	1.531609	0.000000	-5.186875	61.859553	-0.325281	1.330437	0.000000	-0.460089	0.000000	1.889050	0.000000
3.225500	-125.274352	844.323254	66.875542	1.375465	0.000000	-0.527877	0.000000	1.523772	0.000000	-5.036951	61.612422	-0.330196	1.331176	0.000000	-0.460338	0.000000	1.893743	0.000000
3.226000	-124.764664	844.200746	66.623139	1.374983	0.000000	-0.527898	0.000000	1.516226	0.000000	-4.886478	61.373027	-0.336665	1.331834	0.000000	-0.460577	0.000000	1.898351	0.000000
3.226500	-124.253735	844.056138	66.371701	1.374502	0.000000	-0.527918	0.000000	1.508986	0.000000	-4.735777	61.140980	-0.344472	1.332411	0.000000	-0.460805	0.000000	1.902829	0.000000
3.227000	-123.741758	843.889624	66.121554	1.374021	0.000000	-0.527939	0.000000	1.502066	0.000000	-4.585162	60.915897	-0.353398	1.332907	0.000000	-0.461023	0.000000	1.907139	0.000000
3.227500	-123.228928	843.701416	65.873014	1.373541	0.000000	-0.527959	0.000000	1.495480	0.000000	-4.434931	60.697400	-0.363226	1.333324	0.000000	-0.461229	0.000000	1.911239	0.000000
3.228000	-122.715443	843.491742	65.626381	1.373063	0.000000	-0.527979	0.000000	1.489240	0.000000	-4.285371	60.485117	-0.373739	1.333662	0.000000	-0.461425	0.000000	1.915092	0.000000
3.228500	-122.201498	843.260843	65.381946	1.372585	0.000000	-0.527999	0.000000	1.483357	0.000000	-4.136754	60.278680	-0.384726	1.333922	0.000000	-0.461609	0.000000	1.918661	0.000000
3.229000	-121.687291	843.008974	65.139981	1.372109	0.000000	-0.528020	0.000000	1.477842	0.000000	-3.989343	60.077726	-0.395974	1.334105	0.000000	-0.461782	0.000000	1.921908	0.000000
3.229500	-121.173017	842.736402	64.900745	1.371633	0.000000	-0.528040	0.000000	1.472705	0.000000	-3.843381	59.881898	-0.407279	1.334212	0.000000	-0.461942	0.000000	1.924798	0.000000
3.230000	-120.658870	842.443401	64.664482	1.371159	0.000000	-0.528060	0.000000	1.467955	0.000000	-3.699104	59.690844	-0.418440	1.334246	0.000000	-0.462091	0.000000	1.927296	0.000000
3.230500	-120.145040	842.130256	64.431418	1.370685	0.000000	-0.528080	0.000000	1.463599	0.000000	-3.556728	59.504217	-0.429262	1.334207	0.000000	-0.462227	0.000000	1.929367	0.000000
3.231000	-119.631715	841.797259	64.201761	1.370213	0.000000	-0.528100	0.000000	1.459645	0.000000	-3.416460	59.321676	-0.439556	1.334098	0.000000	-0.462351	0.000000	1.930977	0.000000
3.231500	-119.119078	841.444708	63.975705	1.369741	0.000000	-0.528119	0.000000	1.456100	0.000000	-3.278489	59.142885	-0.449141	1.333919	0.000000	-0.462463	0.000000	1.932093	0.000000
3.232000	-118.607309	841.072904	63.753423	1.369270	0.000000	-0.528139	0.000000	1.452967	0.000000	-3.142991	58.967514	-0.457844	1.333674	0.000000	-0.462562	0.000000	1.932681	0.000000
3.232500	-118.096581	840.682155	63.535069	1.368800	0.000000	-0.528158	0.000000	1.450253	0.000000	-3.010130	58.795239	-0.465502	1.333364	0.000000	-0.462649	0.000000	1.932706	0.000000
3.233000	-117.587063	840.272769	63.320782	1.368332	0.000000	-0.528178	0.000000	1.447959	0.000000	-2.880052	58.625743	-0.471959	1.332991	0.000000	-0.462723	0.000000	1.932137	0.000000
3.233500	-117.078918	839.845054	63.110677	1.367864	0.000000	-0.528197	0.000000	1.446090	0.000000	-2.752893	58.458714	-0.477071	1.332558	0.000000	-0.462785	0.000000	1.930938	0.000000
3.234000	-116.572302	839.399322	62.904855	1.367397	0.000000	-0.528215	0.000000	1.444645	0.000000	-2.628772	58.293847	-0.480703	1.332067	0.000000	-0.462835	0.000000	1.929076	0.000000
3.234500	-116.067366	838.935880	62.703394	1.366931	0.000000	-0.528234	0.000000	1.443628	0.000000	-2.507796	58.130843	-0.482732	1.331521	0.000000	-0.462872	0.000000	1.926517	0.000000
3.235000	-115.564253	838.455035	62.506354	1.366465	0.000000	-0.528253	0.000000	1.443036	0.000000	-2.390059	57.969413	-0.483046	1.330921	0.000000	-0.462897	0.000000	1.923226	0.000000
3.235500	-115.063099	837.957092	62.313777	1.366001	0.000000	-0.528271	0.000000	1.442870	0.000000	-2.275640	57.809271	-0.481543	1.330272	0.000000	-0.462909	0.000000	1.919167	0.000000
3.236000	-114.564035	837.442352	62.125685	1.365538	0.000000	-0.528289	0.000000	1.443127	0.000000	-2.164607	57.650141	-0.478136	1.329574	0.000000	-0.462911	0.000000	1.914305	0.000000
3.236500	-114.067182	836.911111	61.942081	1.365075	0.000000	-0.528306	0.000000	1.443806	0.000000	-2.057015	57.491754	-0.472747	1.328833	0.000000	-0.462900	0.000000	1.908604	0.000000
3.237000	-113.572657	836.363661	61.762950	1.364614	0.000000	-0.528324	0.000000	1.444903	0.000000	-1.952905	57.333851	-0.465312	1.328049	0.000000	-0.462878	0.000000	1.902026	0.000000
3.237500	-113.080568	835.800287	61.588261	1.364153	0.000000	-0.528341	0.000000	1.446414	0.000000	-1.852309	57.176178	-0.455778	1.327227	0.000000	-0.462845	0.000000	1.894534	0.000000
3.238000	-112.591016	835.221268	61.417964	1.363693	0.000000	-0.528358	0.000000	1.448334	0.000000	-1.755245	57.018492	-0.444106	1.326368	0.000000	-0.462802	0.000000	1.886089	0.000000
3.238500	-112.104096	834.626878	61.251991	1.363234	0.000000	-0.528374	0.000000	1.450657	0.000000	-1.661722	56.860558	-0.430266	1.325477	0.000000	-0.462748	0.000000	1.876653	0.000000
